PathFileType	4	(X/Y/Z)	C:/Users/empri/Downloads/Take 2024-05-09 02.19.42 PM.trc
DataRate	CameraRate	NumFrames	NumMarkers	Units	OrigDataRate	OrigDataStartFrame	OrigNumFrames
240	240	26	9	mm	240	799	1279
Frame#	Time	C7	CLAV	RELB	RFIN	RFRM	RSHO	RUPA	RWRA	RWRB
X1	Y1	Z1	X2	Y2	Z2	X3	Y3	Z3	X4	Y4	Z4	X5	Y5	Z5	X6	Y6	Z6	X7	Y7	Z7	X8	Y8	Z8	X9	Y9	Z9
799	3.329	-162.831	1560.84	-86.8758	14.4741	1410.44	-143.096	84.5284	1699.1	189.558	226.143	1958.35	120.615	146.468	1789.59	237.496	-63.5911	1575	6.12128	-4.67932	1609.09	122.683	242.256	1876.81	144.22	247.353	1891.57	238.035
800	3.333	-162.811	1560.84	-86.9669	14.4621	1410.44	-143.215	84.729	1697.36	190.992	226.118	1956.36	121.727	146.49	1787.76	238.806	-63.4811	1574.97	6.21501	-4.46684	1608.49	123.263	242.32	1874.93	145.549	247.219	1889.87	239.328
801	3.337	-162.79	1560.84	-87.0504	14.4525	1410.43	-143.333	84.9012	1695.64	192.367	226.067	1954.41	122.892	146.459	1785.96	240.138	-63.3297	1574.89	6.29901	-4.27824	1607.8	123.837	242.35	1873.01	146.903	247.122	1888.15	240.674
802	3.342	-162.756	1560.82	-87.1538	14.4332	1410.41	-143.471	85.1245	1693.51	194.091	226.05	1951.93	124.313	146.442	1783.71	241.75	-63.1413	1574.78	6.39589	-4.10144	1606.99	124.514	242.444	1870.63	148.572	246.991	1885.99	242.272
803	3.346	-162.719	1560.79	-87.2329	14.4121	1410.38	-143.567	85.2367	1691.79	195.411	226.014	1950	125.47	146.386	1781.93	243.035	-63.0137	1574.69	6.51589	-3.8717	1606.34	125.079	242.499	1868.75	149.879	246.887	1884.26	243.584
804	3.35	-162.684	1560.77	-87.3135	14.4067	1410.36	-143.669	85.302	1690.22	196.779	226.005	1948.08	126.655	146.367	1780.1	244.314	-62.9067	1574.61	6.60379	-3.71112	1605.68	125.618	242.532	1866.82	151.211	246.742	1882.5	244.849
805	3.354	-162.651	1560.76	-87.405	14.4029	1410.33	-143.761	85.3816	1688.55	197.984	226.02	1946.17	127.846	146.299	1778.31	245.545	-62.7578	1574.56	6.68605	-3.56286	1605.02	126.112	242.609	1864.89	152.489	246.65	1880.71	246.172
806	3.358	-162.622	1560.74	-87.4806	14.4018	1410.31	-143.848	85.4503	1686.96	199.292	226.069	1944.25	129.002	146.263	1776.54	246.792	-62.6183	1574.48	6.75263	-3.38205	1604.37	126.65	242.608	1862.99	153.809	246.514	1878.86	247.43
807	3.362	-162.608	1560.71	-87.5686	14.3939	1410.27	-143.925	85.5357	1685.32	200.584	226.134	1942.37	130.224	146.226	1774.69	248.034	-62.4828	1574.39	6.8274	-3.23639	1603.78	127.119	242.602	1861.06	155.12	246.407	1877.06	248.7
808	3.367	-162.59	1560.67	-87.6675	14.3784	1410.23	-144.025	85.5755	1683.33	202.114	226.153	1940.11	131.65	146.142	1772.44	249.642	-62.2585	1574.28	6.8872	-3.01969	1602.98	127.681	242.563	1858.66	156.649	246.282	1874.72	250.255
809	3.371	-162.573	1560.65	-87.7441	14.3693	1410.18	-144.093	85.6352	1681.67	203.315	226.237	1938.26	132.877	145.981	1770.63	251.156	-62.0992	1574.14	6.9857	-2.85374	1602.37	128.16	242.478	1856.72	157.88	246.175	1872.86	251.46
810	3.375	-162.565	1560.63	-87.8092	14.3562	1410.13	-144.147	85.629	1680.08	204.626	226.265	1936.43	134.084	145.945	1768.82	252.433	-61.9617	1574.06	7.05835	-2.68307	1601.76	128.656	242.414	1854.8	159.126	246.128	1870.95	252.668
811	3.379	-162.557	1560.61	-87.8669	14.358	1410.09	-144.193	85.6007	1678.42	205.853	226.274	1934.61	135.257	145.955	1766.91	253.748	-61.8542	1573.99	7.11504	-2.54008	1601.12	129.15	242.35	1852.87	160.218	246.057	1869.03	253.82
812	3.383	-162.56	1560.58	-87.9334	14.3502	1410.04	-144.246	85.5656	1676.75	207.25	226.329	1932.8	136.396	145.904	1765.1	255.078	-61.745	1573.92	7.18081	-2.38066	1600.51	129.562	242.21	1850.9	161.421	246	1867.08	254.971
813	3.387	-162.562	1560.57	-87.9985	14.3495	1410.01	-144.296	85.6455	1674.97	208.516	226.322	1930.98	137.527	145.919	1763.18	256.375	-61.608	1573.84	7.24593	-2.19937	1599.87	130.036	242.127	1848.92	162.472	245.915	1865.05	256.091
814	3.392	-162.564	1560.54	-88.08	14.3497	1409.95	-144.354	85.5675	1672.75	210.21	226.263	1928.66	138.898	145.959	1760.77	258.069	-61.4464	1573.73	7.35346	-2.03671	1599.05	130.629	241.852	1846.44	163.848	245.806	1862.54	257.425
815	3.396	-162.567	1560.52	-88.137	14.3493	1409.91	-144.406	85.5476	1670.96	211.554	226.163	1926.75	139.964	145.877	1758.94	259.403	-61.2863	1573.68	7.45104	-1.82495	1598.43	131.083	241.692	1844.43	164.901	245.757	1860.53	258.439
816	3.4	-162.561	1560.5	-88.2032	14.3653	1409.87	-144.445	85.5648	1669.1	212.908	225.992	1924.81	141.034	145.711	1757.1	260.853	-61.1069	1573.58	7.49336	-1.66377	1597.79	131.615	241.513	1842.42	165.922	245.701	1858.53	259.407
817	3.404	-162.543	1560.52	-88.2854	14.3759	1409.83	-144.489	85.5271	1667.22	214.384	225.879	1922.84	142.006	145.93	1755.05	262.12	-60.9091	1573.58	7.63676	-1.54148	1597.18	132.084	241.282	1840.36	166.919	245.631	1856.5	260.415
818	3.408	-162.533	1560.51	-88.3457	14.3935	1409.8	-144.528	85.6016	1665.38	215.79	225.703	1920.8	142.993	145.876	1753.1	263.377	-60.6548	1573.49	7.73309	-1.4155	1596.54	132.575	241.062	1838.28	167.896	245.613	1854.46	261.348
819	3.413	-162.503	1560.5	-88.435	14.4201	1409.78	-144.576	85.5541	1663.16	217.634	225.436	1918.17	144.128	145.86	1750.61	264.996	-60.3202	1573.42	7.86887	-1.12455	1595.7	133.204	240.733	1835.62	169.142	245.474	1851.87	262.505
820	3.417	-162.473	1560.49	-88.5279	14.4342	1409.76	-144.63	85.5131	1661.36	219.034	225.201	1916	145.018	145.812	1748.62	266.265	-60.0913	1573.38	7.9852	-0.930717	1595.08	133.685	240.508	1833.48	170.091	245.358	1849.8	263.425
821	3.421	-162.45	1560.5	-88.6136	14.4542	1409.72	-144.687	85.4679	1659.64	220.396	224.95	1913.76	145.853	145.71	1746.61	267.468	-59.8934	1573.33	8.07921	-0.79733	1594.4	134.209	240.273	1831.3	171.062	245.225	1847.74	264.321
822	3.425	-162.385	1560.48	-88.6906	14.4801	1409.68	-144.733	85.3896	1657.87	221.755	224.66	1911.48	146.676	145.546	1744.55	268.615	-59.6817	1573.26	8.19709	-0.614038	1593.72	134.77	240.017	1829.08	172.013	245.033	1845.67	265.193
823	3.429	-162.332	1560.48	-88.7828	14.5003	1409.64	-144.785	85.303	1656.13	222.994	224.406	1909.2	147.379	145.627	1742.45	269.478	-59.4901	1573.23	8.31171	-0.456376	1593.02	135.267	239.797	1826.88	172.867	244.815	1843.61	266.041
824	3.433	-162.278	1560.48	-88.8499	14.5258	1409.61	-144.832	85.2572	1654.33	224.26	224.125	1906.85	148.131	145.429	1740.35	270.532	-59.2682	1573.21	8.41852	-0.273479	1592.31	135.748	239.54	1824.62	173.838	244.569	1841.53	266.904
